<?xml version="1.0" encoding="UTF-8" standalone="no"?>
<!-- Generator: Adobe Illustrator 16.2.0, SVG Export Plug-In . SVG Version: 6.00 Build 0)  -->

<svg
   xmlns:osb="http://www.openswatchbook.org/uri/2009/osb"
   xmlns:dc="http://purl.org/dc/elements/1.1/"
   xmlns:cc="http://creativecommons.org/ns#"
   xmlns:rdf="http://www.w3.org/1999/02/22-rdf-syntax-ns#"
   xmlns:svg="http://www.w3.org/2000/svg"
   xmlns="http://www.w3.org/2000/svg"
   xmlns:sodipodi="http://sodipodi.sourceforge.net/DTD/sodipodi-0.dtd"
   xmlns:inkscape="http://www.inkscape.org/namespaces/inkscape"
   version="1.1"
   id="svg2"
   sodipodi:docname="lws_ic.svg"
   inkscape:export-ydpi="80"
   inkscape:export-filename="/home/mvb/git/lWS/app/icons/lws_ic.png"
   inkscape:export-xdpi="80"
   inkscape:version="0.91 r13725"
   x="0px"
   y="0px"
   width="576px"
   height="576px"
   viewBox="0 0 576 576"
   enable-background="new 0 0 576 576"
   xml:space="preserve"><metadata
     id="metadata4246"><rdf:RDF><cc:Work
         rdf:about=""><dc:format>image/svg+xml</dc:format><dc:type
           rdf:resource="http://purl.org/dc/dcmitype/StillImage" /><dc:title /></cc:Work></rdf:RDF></metadata><defs
     id="defs4244"><linearGradient
       id="linearGradient9380"
       osb:paint="solid"><stop
         style="stop-color:#ffff64;stop-opacity:1;"
         offset="0"
         id="stop9382" /></linearGradient><linearGradient
       id="linearGradient8110"
       osb:paint="solid"><stop
         style="stop-color:#000000;stop-opacity:1;"
         offset="0"
         id="stop8112" /></linearGradient><clipPath
       id="SVGID_6_"><rect
         height="560.15198"
         width="560.15198"
         y="8.3479996"
         x="8.3190002"
         id="use6034" /></clipPath><clipPath
       id="clipPath6606"><rect
         height="560.15198"
         width="560.15198"
         y="8.3479996"
         x="8.3190002"
         id="use6608" /></clipPath></defs><sodipodi:namedview
     id="base"
     inkscape:cx="244.78841"
     inkscape:cy="317.03356"
     showguides="true"
     showgrid="false"
     pagecolor="#ffffff"
     borderopacity="1.0"
     bordercolor="#666666"
     inkscape:zoom="0.70710678"
     inkscape:window-x="0"
     inkscape:document-units="px"
     inkscape:pageshadow="2"
     inkscape:guide-bbox="true"
     inkscape:current-layer="layer3"
     inkscape:window-maximized="1"
     inkscape:pageopacity="0.0"
     inkscape:window-height="995"
     inkscape:window-width="1680"
     inkscape:window-y="0"><sodipodi:guide
       orientation="1,0"
       position="552,574.7768"
       id="guide2985" /><sodipodi:guide
       orientation="1,0"
       position="24,307.08637"
       id="guide2987" /><sodipodi:guide
       orientation="0,1"
       position="16.162441,24"
       id="guide2989" /><sodipodi:guide
       orientation="0,1"
       position="78.791899,552"
       id="guide2991" /><sodipodi:guide
       orientation="0,1"
       position="243.24473,284.25692"
       id="guide3793" /><sodipodi:guide
       orientation="1,0"
       position="288,301.93459"
       id="guide3795" /></sodipodi:namedview><g
     inkscape:groupmode="layer"
     id="layer1"
     inkscape:label="Frame"
     style="display:none;opacity:1"><rect
       style="opacity:1;fill:#8abfe7;fill-opacity:1;stroke:#000000;stroke-width:2.78291154;stroke-linecap:square;stroke-linejoin:round;stroke-miterlimit:10;stroke-dasharray:none;stroke-opacity:1"
       id="rect8150"
       width="455.21707"
       height="455.2171"
       x="60.391457"
       y="60.391453"
       rx="24"
       ry="24" /></g><g
     inkscape:groupmode="layer"
     id="layer3"
     inkscape:label="Web"
     style="display:inline"><g
       transform="translate(-2.6537,-1.139846)"
       id="g10122"><g
         id="g9532"><path
           style="fill:none;stroke:#626261;stroke-width:20;stroke-linecap:round;stroke-linejoin:round"
           inkscape:connector-curvature="0"
           id="path9534"
           d="m 262.148,234.01 71.334,-26.303 22.676,71.403 -33.938,58.251 -67.707,0.668 -56.192,-58.919 33.791,-90.195 133.284,-26.31 63.723,116.503 -72.96,116.499 -133.433,0.704 L 125.111,279.107 203.952,136.298 382.291,125.025 485.54,279.107 402.945,470.77 c 0,0 -161.446,-7.519 -232.781,33.82 C 140.126,401.244 76.303,307.96 31.25,273.802 113.848,172.003 151.499,123.147 151.499,53.621 c 106.702,33.825 258.961,-9.207 260.831,0 16.791,82.678 146.425,225.486 146.425,225.486 l -536.895,0" /><line
           style="fill:none;stroke:#626261;stroke-width:20;stroke-linecap:round;stroke-linejoin:round"
           id="line9536"
           y2="560.70001"
           x2="124.868"
           y1="46.82"
           x1="424.146" /><line
           style="fill:none;stroke:#626261;stroke-width:20;stroke-linecap:round;stroke-linejoin:round"
           id="line9538"
           y2="540.09198"
           x2="440.42401"
           y1="18.771"
           x1="132.36301" /></g><g
         id="g9540"><path
           style="fill:none;stroke:#fefefe;stroke-width:14;stroke-linecap:round;stroke-linejoin:round"
           inkscape:connector-curvature="0"
           id="path9542"
           d="m 261.149,232.009 71.333,-26.303 22.676,71.403 -33.938,58.251 -67.706,0.668 -56.193,-58.919 33.791,-90.195 133.284,-26.31 63.723,116.503 -72.96,116.499 -133.432,0.705 -97.615,-117.205 78.841,-142.809 178.339,-11.273 103.249,154.082 -82.596,191.664 c 0,0 -161.446,-7.52 -232.781,33.82 C 139.126,399.243 75.303,305.96 30.25,271.802 112.848,170.002 150.499,121.146 150.499,51.62 c 106.702,33.825 258.96,-9.207 260.831,0 16.791,82.678 146.425,225.486 146.425,225.486 l -536.894,0" /><line
           style="fill:none;stroke:#fefefe;stroke-width:14;stroke-linecap:round;stroke-linejoin:round"
           id="line9544"
           y2="558.70001"
           x2="123.868"
           y1="44.819"
           x1="423.146" /><line
           style="fill:none;stroke:#fefefe;stroke-width:14;stroke-linecap:round;stroke-linejoin:round"
           id="line9546"
           y2="538.091"
           x2="439.42401"
           y1="16.77"
           x1="131.36301" /></g></g></g><g
     inkscape:groupmode="layer"
     id="layer4"
     inkscape:label="Alpha"
     style="display:none"><text
       xml:space="preserve"
       style="font-style:normal;font-weight:normal;font-size:319.33584595px;line-height:125%;font-family:sans-serif;letter-spacing:0px;word-spacing:0px;fill:#ff0100;fill-opacity:1;stroke:none;stroke-width:1px;stroke-linecap:butt;stroke-linejoin:miter;stroke-opacity:1"
       x="343.23285"
       y="552.18713"
       id="text4164"
       sodipodi:linespacing="125%"
       transform="scale(1.0135171,0.98666318)"><tspan
         sodipodi:role="line"
         id="tspan4166"
         x="343.23285"
         y="552.18713">α</tspan></text>
</g><g
     inkscape:groupmode="layer"
     id="layer5"
     inkscape:label="Betta"
     style="display:none"><g
       transform="translate(111.15,58.4)"
       class="st5"
       id="g4973"
       style="fill:#00d91b;fill-opacity:1"><path
         inkscape:connector-curvature="0"
         class="st6"
         d="m 340.1,411.2 0,83.4 -23.1,0 0,-217.4 c 0,-17.3 2,-30.9 5.9,-40.7 3.9,-9.8 10.6,-17.9 20.2,-24.3 9.5,-6.4 20.1,-9.6 31.8,-9.6 17.3,0 30.3,5.9 39.2,17.8 8.9,11.8 13.3,24.8 13.3,38.8 0,13.7 -3.6,24.8 -10.8,33.2 -7.2,8.4 -15.4,13.6 -24.7,15.5 14.9,1.7 26.5,8.2 34.6,19.2 8.1,11.1 12.2,24.7 12.2,40.9 0,17.4 -4.8,33 -14.4,46.8 -9.6,13.8 -23.4,20.7 -41.5,20.7 -18.5,0.1 -32.7,-8 -42.7,-24.3 z m 20.5,-112.1 c 15.8,0 27.3,-3.3 34.5,-9.8 7.2,-6.6 10.8,-16 10.8,-28.5 0,-10 -3.1,-18.5 -9.2,-25.2 -6.1,-6.8 -13.8,-10.2 -23,-10.2 -8,0 -14.9,2.5 -20.8,7.5 -5.9,5 -9.5,10.6 -10.8,16.8 -1.3,6.2 -2,16.9 -2,32.3 l 0,62 c 0,17.6 1,30.6 3.1,38.9 2.1,8.3 6.5,15.8 13.3,22.5 6.8,6.7 14.6,10 23.4,10 10.7,0 19.2,-4.4 25.4,-13.2 6.2,-8.8 9.3,-19.6 9.3,-32.5 0,-10.7 -2.3,-20.2 -6.9,-28.7 -4.6,-8.5 -10.3,-14.2 -17,-17.2 -6.7,-3 -15.7,-4.5 -26.9,-4.5 l -3.3,0 0,-20.2 0.1,0 z"
         id="path4975"
         style="fill:#00d91b;fill-opacity:1" /></g></g><g
     inkscape:groupmode="layer"
     id="layer7"
     inkscape:label="Shortcut"
     style="display:none"><g
       transform="matrix(1.0000019,0,0,0.99997525,21.999996,-382.98577)"
       style="display:inline"
       id="g4239"
       inkscape:export-filename="/home/mvb/tmp/omn_u.png"
       inkscape:export-xdpi="80"
       inkscape:export-ydpi="80"><rect
         id="rect102"
         height="155.89999"
         width="155.89999"
         class="st25"
         y="413.10001"
         x="8"
         style="clip-rule:evenodd;fill:#ffffff;fill-rule:evenodd;stroke:#a0a0a0;stroke-width:12;stroke-miterlimit:10" /><path
         inkscape:connector-curvature="0"
         id="path104"
         d="m 84.7,546.1 c 0,0 -22.9,-8.5 8.5,-42.3 l 8.5,-8.5 25.4,27.2 0,-78 -67.7,0 18.6,23.8 -27.1,27.1 c 0,0 -10.5,13 8.5,33.8 15.5,17 25.3,16.9 25.3,16.9 l 0,0 z"
         class="st26"
         style="clip-rule:evenodd;fill:#3760e2;fill-rule:evenodd" /></g></g><g
     id="layer2"
     inkscape:label="new_grid"
     inkscape:groupmode="layer"
     display="none"
     style="display:none"><path
       id="rect3070"
       display="inline"
       d="m 108.468,24.499 359.064,0 c 6.608,0 11.969,5.36 11.969,11.977 l 0,503.048 c 0,6.615 -5.358,11.979 -11.969,11.979 l -359.064,0 c -6.61,0 -11.969,-5.362 -11.969,-11.979 l 0,-503.048 c 0,-6.614 5.358,-11.977 11.969,-11.977 z"
       inkscape:connector-curvature="0"
       style="display:inline;fill-opacity:0;stroke:#000000;stroke-width:0.99779999" /><path
       id="rect3840"
       display="inline"
       d="m 36.476,96.499 503.047,0 c 6.613,0 11.978,5.356 11.978,11.969 l 0,359.063 c 0,6.609 -5.362,11.97 -11.978,11.97 l -503.047,0 c -6.615,0 -11.977,-5.358 -11.977,-11.97 l 0,-359.063 c 0,-6.61 5.362,-11.969 11.977,-11.969 z"
       inkscape:connector-curvature="0"
       style="display:inline;fill-opacity:0;stroke:#000000;stroke-width:0.99779999" /><path
       id="rect3842"
       inkscape:connector-curvature="0"
       display="inline"
       d="M 72.473,60 C 65.571,60 60,65.572 60,72.473 l 0,431.055 c 0,6.9 5.571,12.473 12.473,12.473 l 431.055,0 c 6.899,0 12.473,-5.57 12.473,-12.473 l 0,-431.055 C 516,65.572 510.429,60 503.527,60 L 72.473,60 Z m 0,0.998 431.055,0 c 6.363,0 11.475,5.106 11.475,11.475 l 0,431.055 c 0,6.365 -5.109,11.477 -11.475,11.477 l -431.055,0 c -6.366,0 -11.475,-5.109 -11.475,-11.477 l 0,-431.055 c 0,-6.366 5.109,-11.475 11.475,-11.475 z"
       style="display:inline" /><circle
       id="path3844"
       display="inline"
       stroke-miterlimit="10"
       cx="288"
       cy="288"
       r="263.49799"
       style="display:inline;fill-opacity:0;stroke:#000000;stroke-width:0.3118;stroke-miterlimit:10" /></g></svg>